<svg width="20" height="20" viewBox="0 0 20 20" fill="none" xmlns="http://www.w3.org/2000/svg">
<g clip-path="url(#clip0_914_7)">
<path d="M19.1884 18.4928H1.50727V0.811619C1.50727 0.434807 1.18843 0.115967 0.811619 0.115967C0.434807 0.115967 0.115967 0.434807 0.115967 0.811619V19.1884C0.115967 19.5652 0.434807 19.8841 0.811619 19.8841H19.1884C19.5652 19.8841 19.8841 19.5652 19.8841 19.1884C19.8841 18.8116 19.5652 18.4928 19.1884 18.4928V18.4928Z" fill="#99A7BE"/>
<path d="M8.26083 15.7971V5.7681C8.26083 5.39129 7.94198 5.07245 7.56517 5.07245C7.18836 5.07245 6.86952 5.39129 6.86952 5.7681V15.8261C6.86952 16.2029 7.18836 16.5217 7.56517 16.5217C7.94198 16.5217 8.26083 16.2029 8.26083 15.7971ZM4.89851 15.7971V5.7681C4.89851 5.39129 4.57967 5.07245 4.20285 5.07245C3.82604 5.07245 3.5072 5.39129 3.5072 5.7681V15.8261C3.5072 16.2029 3.82604 16.5217 4.20285 16.5217C4.57967 16.4927 4.89851 16.2029 4.89851 15.7971ZM15.0144 15.7971V5.7681C15.0144 5.39129 14.6956 5.07245 14.3188 5.07245C13.942 5.07245 13.6231 5.39129 13.6231 5.7681V15.8261C13.6231 16.2029 13.942 16.5217 14.3188 16.5217C14.6956 16.4927 15.0144 16.2029 15.0144 15.7971ZM18.3768 15.7971V10.7826C18.3768 10.4058 18.0579 10.0869 17.6811 10.0869C17.3043 10.0869 16.9855 10.4058 16.9855 10.7826V15.7971C16.9855 16.1739 17.3043 16.4927 17.6811 16.4927C18.0579 16.4927 18.3768 16.2029 18.3768 15.7971ZM11.6231 15.7971V10.7826C11.6231 10.4058 11.3043 10.0869 10.9275 10.0869C10.5507 10.0869 10.2318 10.4058 10.2318 10.7826V15.7971C10.2318 16.1739 10.5507 16.4927 10.9275 16.4927C11.3043 16.4927 11.6231 16.2029 11.6231 15.7971Z" fill="#99A7BE"/>
</g>
<defs>
<clipPath id="clip0_914_7">
<rect width="20" height="20" fill="white"/>
</clipPath>
</defs>
</svg>
