<svg width="21" height="20" viewBox="0 0 21 20" fill="none" xmlns="http://www.w3.org/2000/svg">
<path d="M10.4615 11.2308C13.5692 11.2308 16.0615 8.70769 16.0615 5.63077C16.0615 2.55385 13.5692 0 10.4615 0C7.35385 0 4.86154 2.52308 4.86154 5.6C4.86154 8.67692 7.35385 11.2308 10.4615 11.2308V11.2308ZM10.4615 1.47692C12.7385 1.47692 14.5846 3.32308 14.5846 5.6C14.5846 7.87692 12.7385 9.72308 10.4615 9.72308C8.18462 9.72308 6.33846 7.90769 6.33846 5.63077C6.33846 3.35385 8.18462 1.47692 10.4615 1.47692V1.47692ZM0.738461 20H20.2462C20.6462 20 20.9846 19.6615 20.9846 19.2615C20.9846 15.3846 17.8154 12.2154 13.9385 12.2154H7.04615C3.16923 12.2154 0 15.3846 0 19.2615C0 19.6615 0.338461 20 0.738461 20V20ZM7.04615 13.6923H13.9385C16.7692 13.6923 19.0769 15.7846 19.4462 18.5231H1.53846C1.90769 15.7846 4.21538 13.6923 7.04615 13.6923Z" fill="#99A7BE"/>
</svg>
