<svg width="25" height="25" viewBox="0 0 25 25" fill="none" xmlns="http://www.w3.org/2000/svg">
<path d="M21.339 3.66101C16.457 -1.22099 8.54301 -1.22099 3.66101 3.66101C-1.22099 8.54301 -1.22099 16.457 3.66101 21.339C8.54301 26.221 16.457 26.221 21.339 21.339C26.221 16.457 26.22 8.54301 21.339 3.66101ZM19.303 9.40901L11.707 17.006C11.5195 17.1935 11.2652 17.2988 11 17.2988C10.7348 17.2988 10.4805 17.1935 10.293 17.006L5.69701 12.409C5.60417 12.3162 5.53052 12.2059 5.48027 12.0846C5.43002 11.9633 5.40416 11.8333 5.40416 11.702C5.40416 11.4368 5.5095 11.1825 5.69701 10.995C5.88452 10.8075 6.13884 10.7022 6.40401 10.7022C6.66919 10.7022 6.9235 10.8075 7.11101 10.995L11 14.884L17.889 7.99401C17.9819 7.90117 18.0922 7.82753 18.2136 7.77731C18.3349 7.72709 18.465 7.70126 18.5964 7.70131C18.7277 7.70136 18.8578 7.72727 18.9791 7.77758C19.1004 7.82789 19.2107 7.9016 19.3035 7.99451C19.3964 8.08742 19.47 8.19771 19.5202 8.31908C19.5704 8.44045 19.5963 8.57052 19.5962 8.70187C19.5962 8.83321 19.5703 8.96327 19.5199 9.0846C19.4696 9.20593 19.3959 9.31617 19.303 9.40901Z" fill="#2969F9"/>
</svg>
